HIERARCHY
ROOT Hips
{
  OFFSET 12.5924 87.7646 8.5502
  CHANNELS 6 Xposition Yposition Zposition Zrotation Xrotation Yrotation
  JOINT RightUpLeg
  {
    OFFSET -9.27424 -1.51647 -0.00177081
    CHANNELS 3 Zrotation Xrotation Yrotation
    JOINT RightLeg
    {
      OFFSET -0.0218595 -41.9179 0.0996455
      CHANNELS 3 Zrotation Xrotation Yrotation
      JOINT RightFoot
      {
        OFFSET -0.864559 -41.9626 -0.357059
        CHANNELS 3 Zrotation Xrotation Yrotation
        End Site
        {
          OFFSET 0 -7.69 17.5
        }
      }
    }
  }
  JOINT LeftUpLeg
  {
    OFFSET 9.25718 -1.5867 0.052377
    CHANNELS 3 Zrotation Xrotation Yrotation
    JOINT LeftLeg
    {
      OFFSET 0.0916619 -41.8676 0.000817906
      CHANNELS 3 Zrotation Xrotation Yrotation
      JOINT LeftFoot
      {
        OFFSET -0.467602 -41.8546 0.208385
        CHANNELS 3 Zrotation Xrotation Yrotation
        End Site
        {
          OFFSET 0 -7.69 17.5
        }
      }
    }
  }
  JOINT Spine
  {
    OFFSET 0.0181296 14.2981 0.0454815
    CHANNELS 3 Zrotation Xrotation Yrotation
    JOINT Spine1
    {
      OFFSET 0.0179205 9.71532 0.0144816
      CHANNELS 3 Zrotation Xrotation Yrotation
      JOINT Spine2
      {
        OFFSET 0.0460832 10.1118 -0.00781291
        CHANNELS 3 Zrotation Xrotation Yrotation
        JOINT Spine3
        {
          OFFSET 0.0326005 9.72657 -0.000132442
          CHANNELS 3 Zrotation Xrotation Yrotation
          JOINT Neck
          {
            OFFSET -0.0594321 10.3688 0.0892585
            CHANNELS 3 Zrotation Xrotation Yrotation
            JOINT Head
            {
              OFFSET -0.027184 9.52116 0.11923
              CHANNELS 3 Zrotation Xrotation Yrotation
              End Site
              {
                OFFSET 0 15.95 0
              }
            }
          }
          JOINT RightShoulder
          {
            OFFSET -3.18249 6.94712 0.0315742
            CHANNELS 3 Zrotation Xrotation Yrotation
            JOINT RightArm
            {
              OFFSET -12.6859 -0.0281953 -0.0223312
              CHANNELS 3 Zrotation Xrotation Yrotation
              JOINT RightForeArm
              {
                OFFSET -26.4349 -0.138904 0.103809
                CHANNELS 3 Zrotation Xrotation Yrotation
                JOINT RightHand
                {
                  OFFSET -26.0404 -0.036643 0.02476
                  CHANNELS 3 Zrotation Xrotation Yrotation
                  JOINT RightHandThumb1
                  {
                    OFFSET -2.48905 0.190105 3.12053
                    CHANNELS 3 Zrotation Xrotation Yrotation
                    JOINT RightHandThumb2
                    {
                      OFFSET -3.68274 0 0
                      CHANNELS 3 Zrotation Xrotation Yrotation
                      JOINT RightHandThumb3
                      {
                        OFFSET -2.55832 0 0
                        CHANNELS 3 Zrotation Xrotation Yrotation
                        End Site
                        {
                          OFFSET -2.194 0 0
                        }
                      }
                    }
                  }
                  JOINT RightInHandIndex
                  {
                    OFFSET -3.22368 0.508421 1.97842
                    CHANNELS 3 Zrotation Xrotation Yrotation
                    JOINT RightHandIndex1
                    {
                      OFFSET -5.21684 -0.091368 0.999158
                      CHANNELS 3 Zrotation Xrotation Yrotation
                      JOINT RightHandIndex2
                      {
                        OFFSET -3.61937 0 0
                        CHANNELS 3 Zrotation Xrotation Yrotation
                        JOINT RightHandIndex3
                        {
                          OFFSET -2.0521 0 0
                          CHANNELS 3 Zrotation Xrotation Yrotation
                          End Site
                          {
                            OFFSET -1.805 0 0
                          }
                        }
                      }
                    }
                  }
                  JOINT RightInHandMiddle
                  {
                    OFFSET -3.38211 0.517263 0.756737
                    CHANNELS 3 Zrotation Xrotation Yrotation
                    JOINT RightHandMiddle1
                    {
                      OFFSET -5.17411 -0.084 0.313895
                      CHANNELS 3 Zrotation Xrotation Yrotation
                      JOINT RightHandMiddle2
                      {
                        OFFSET -3.94947 0 0
                        CHANNELS 3 Zrotation Xrotation Yrotation
                        JOINT RightHandMiddle3
                        {
                          OFFSET -2.47579 0 0
                          CHANNELS 3 Zrotation Xrotation Yrotation
                          End Site
                          {
                            OFFSET -1.975 0 0
                          }
                        }
                      }
                    }
                  }
                  JOINT RightInHandRing
                  {
                    OFFSET -3.36516 0.537895 -0.128947
                    CHANNELS 3 Zrotation Xrotation Yrotation
                    JOINT RightHandRing1
                    {
                      OFFSET -4.63474 -0.022105 -0.478947
                      CHANNELS 3 Zrotation Xrotation Yrotation
                      JOINT RightHandRing2
                      {
                        OFFSET -3.44238 0 0
                        CHANNELS 3 Zrotation Xrotation Yrotation
                        JOINT RightHandRing3
                        {
                          OFFSET -2.3881 0 0
                          CHANNELS 3 Zrotation Xrotation Yrotation
                          End Site
                          {
                            OFFSET -1.857 0 0
                          }
                        }
                      }
                    }
                  }
                  JOINT RightInHandPinky
                  {
                    OFFSET -3.16105 0.469368 -1.20179
                    CHANNELS 3 Zrotation Xrotation Yrotation
                    JOINT RightHandPinky1
                    {
                      OFFSET -4.14105 -0.022105 -1.09053
                      CHANNELS 3 Zrotation Xrotation Yrotation
                      JOINT RightHandPinky2
                      {
                        OFFSET -2.75653 0 0
                        CHANNELS 3 Zrotation Xrotation Yrotation
                        JOINT RightHandPinky3
                        {
                          OFFSET -1.74189 0 0
                          CHANNELS 3 Zrotation Xrotation Yrotation
                          End Site
                          {
                            OFFSET -1.645 0 0
                          }
                        }
                      }
                    }
                  }
                }
              }
            }
          }
          JOINT LeftShoulder
          {
            OFFSET 3.21289 6.91298 -0.0113859
            CHANNELS 3 Zrotation Xrotation Yrotation
            JOINT LeftArm
            {
              OFFSET 12.7691 -0.0256594 -0.0399854
              CHANNELS 3 Zrotation Xrotation Yrotation
              JOINT LeftForeArm
              {
                OFFSET 26.4177 -0.0137926 -0.00219879
                CHANNELS 3 Zrotation Xrotation Yrotation
                JOINT LeftHand
                {
                  OFFSET 26.0013 -0.0633708 -0.0119906
                  CHANNELS 3 Zrotation Xrotation Yrotation
                  JOINT LeftHandThumb1
                  {
                    OFFSET 2.48905 0.190105 3.12053
                    CHANNELS 3 Zrotation Xrotation Yrotation
                    JOINT LeftHandThumb2
                    {
                      OFFSET 3.68274 0 0
                      CHANNELS 3 Zrotation Xrotation Yrotation
                      JOINT LeftHandThumb3
                      {
                        OFFSET 2.55832 0 0
                        CHANNELS 3 Zrotation Xrotation Yrotation
                        End Site
                        {
                          OFFSET 2.194 0 0
                        }
                      }
                    }
                  }
                  JOINT LeftInHandIndex
                  {
                    OFFSET 3.22368 0.508421 1.97842
                    CHANNELS 3 Zrotation Xrotation Yrotation
                    JOINT LeftHandIndex1
                    {
                      OFFSET 5.21684 -0.091368 0.999158
                      CHANNELS 3 Zrotation Xrotation Yrotation
                      JOINT LeftHandIndex2
                      {
                        OFFSET 3.61937 0 0
                        CHANNELS 3 Zrotation Xrotation Yrotation
                        JOINT LeftHandIndex3
                        {
                          OFFSET 2.0521 0 0
                          CHANNELS 3 Zrotation Xrotation Yrotation
                          End Site
                          {
                            OFFSET 1.805 0 0
                          }
                        }
                      }
                    }
                  }
                  JOINT LeftInHandMiddle
                  {
                    OFFSET 3.38211 0.517263 0.756737
                    CHANNELS 3 Zrotation Xrotation Yrotation
                    JOINT LeftHandMiddle1
                    {
                      OFFSET 5.17411 -0.084 0.313895
                      CHANNELS 3 Zrotation Xrotation Yrotation
                      JOINT LeftHandMiddle2
                      {
                        OFFSET 3.94947 0 0
                        CHANNELS 3 Zrotation Xrotation Yrotation
                        JOINT LeftHandMiddle3
                        {
                          OFFSET 2.47579 0 0
                          CHANNELS 3 Zrotation Xrotation Yrotation
                          End Site
                          {
                            OFFSET 1.975 0 0
                          }
                        }
                      }
                    }
                  }
                  JOINT LeftInHandRing
                  {
                    OFFSET 3.36516 0.537895 -0.128947
                    CHANNELS 3 Zrotation Xrotation Yrotation
                    JOINT LeftHandRing1
                    {
                      OFFSET 4.63474 -0.022105 -0.478947
                      CHANNELS 3 Zrotation Xrotation Yrotation
                      JOINT LeftHandRing2
                      {
                        OFFSET 3.44238 0 0
                        CHANNELS 3 Zrotation Xrotation Yrotation
                        JOINT LeftHandRing3
                        {
                          OFFSET 2.3881 0 0
                          CHANNELS 3 Zrotation Xrotation Yrotation
                          End Site
                          {
                            OFFSET 1.857 0 0
                          }
                        }
                      }
                    }
                  }
                  JOINT LeftInHandPinky
                  {
                    OFFSET 3.16105 0.469368 -1.20179
                    CHANNELS 3 Zrotation Xrotation Yrotation
                    JOINT LeftHandPinky1
                    {
                      OFFSET 4.14105 -0.022105 -1.09053
                      CHANNELS 3 Zrotation Xrotation Yrotation
                      JOINT LeftHandPinky2
                      {
                        OFFSET 2.75653 0 0
                        CHANNELS 3 Zrotation Xrotation Yrotation
                        JOINT LeftHandPinky3
                        {
                          OFFSET 1.74189 0 0
                          CHANNELS 3 Zrotation Xrotation Yrotation
                          End Site
                          {
                            OFFSET 1.645 0 0
                          }
                        }
                      }
                    }
                  }
                }
              }
            }
          }
        }
      }
    }
  }
}
MOTION
Frames: 3
Frame Time: 0.00833333
4.499946958295755621e+02 -2.038858717710051601e-04 -5.784371197019862187e-03 -2.753990857456829755e-02 5.173127432613703128e-03 -1.930686732938393102e-01 2.706073197085943627e-01 4.508362220819764343e-02 3.612941173359400793e-01 -1.751805313344777584e-04 -1.107119632562619804e-02 -4.351107069121448040e-02 7.350033465928839521e-03 7.581413047783450328e-03 2.049338524813089021e-02 1.923062636819299620e-01 1.001703514851025600e-01 2.293457846956384882e-01 -2.572448941214640697e-02 2.180568520334415922e-02 9.878151013473357792e-03 -6.016197890803647030e-04 -2.663405118180881340e-02 2.759765615965842009e-02 -2.549734306443478954e-02 -1.759884762657334392e-03 -1.844628118243605728e-03 -6.270742446165405992e-03 6.501736772075138995e-04 -1.744362852685519150e-03 -9.977404905906423274e-03 -1.109708377242601572e-03 -2.586493519075313587e-03 -2.335964430454470081e-03 -3.398800750138889371e-03 7.683706372778291091e-03 -1.040688889127868236e-02 -4.170148467961735592e-03 3.909416357554465482e-02 -5.167300900687273046e-02 -4.019720529513297336e-02 1.301040555031964530e-01 -2.443374904700311434e-02 3.778952021511786802e-02 1.022679910268609188e-01 -6.682802245098045865e-03 -8.657147367505427238e-02 -7.532064227813606294e-02 -4.299421551772394934e-02 4.490144335280787935e-02 4.448294594004872926e-02 -3.116946458090696925e-02 8.768033995159950356e-02 -2.811607170228402203e-02 0.000000000000000000e+00 0.000000000000000000e+00 0.000000000000000000e+00 4.390951465457204473e-16 -1.622168761111993040e-16 0.000000000000000000e+00 2.209507719793071135e-16 -1.411715367251839286e-16 0.000000000000000000e+00 9.298033929529058249e-17 5.552609920507562552e-17 1.874878848128699184e-16 0.000000000000000000e+00 0.000000000000000000e+00 0.000000000000000000e+00 0.000000000000000000e+00 1.221298759278647614e-15 9.006018788237888044e-16 0.000000000000000000e+00 -1.345978393138956750e-15 -7.096326359160252582e-16 9.298033929529058249e-17 5.552609920507562552e-17 1.874878848128699184e-16 0.000000000000000000e+00 -7.389459186347707446e-17 9.344451715443247041e-16 0.000000000000000000e+00 -9.046419142247778034e-16 -1.304823179073289585e-15 0.000000000000000000e+00 3.892658665163214803e-16 9.118773702504627644e-16 9.298033929529058249e-17 5.552609920507562552e-17 1.874878848128699184e-16 0.000000000000000000e+00 0.000000000000000000e+00 0.000000000000000000e+00 0.000000000000000000e+00 3.399113263631623366e-16 -9.403926669131961476e-16 0.000000000000000000e+00 -8.990742885192379219e-16 -3.204656044365194770e-17 9.298033929529058249e-17 5.552609920507562552e-17 1.874878848128699184e-16 0.000000000000000000e+00 0.000000000000000000e+00 0.000000000000000000e+00 0.000000000000000000e+00 -5.727352315917963561e-16 3.520507085386723400e-16 0.000000000000000000e+00 -1.398266613359803470e-16 -9.272856300880385775e-16 3.100210170619696615e-02 -2.555783123472003815e-02 7.468142906139577097e-02 -2.687531217067043454e-01 3.764384548047951251e-02 2.681630342479029427e-01 -1.067529101983585860e-03 2.611231113611805488e-01 -1.741998788563889344e-01 -2.965488922727446686e-01 1.697629606364644550e-01 -2.786633517883442823e-01 0.000000000000000000e+00 0.000000000000000000e+00 0.000000000000000000e+00 5.361618925571246463e-17 4.929001728604837966e-17 0.000000000000000000e+00 -1.658362300677800306e-15 7.801219984592671657e-16 0.000000000000000000e+00 3.430999902402596146e-16 -1.056200721203634901e-16 -3.836201700227424813e-17 0.000000000000000000e+00 0.000000000000000000e+00 0.000000000000000000e+00 0.000000000000000000e+00 -1.409142530549435107e-15 2.375375358433629506e-15 0.000000000000000000e+00 5.963588250210154575e-16 3.247592049723690432e-15 3.430999902402596146e-16 -1.056200721203634901e-16 -3.836201700227424813e-17 0.000000000000000000e+00 -5.733832954962003715e-16 9.739036119388335883e-16 0.000000000000000000e+00 -5.045254579404475348e-16 2.836473575075429565e-15 0.000000000000000000e+00 2.338622377657748901e-16 6.033119196538990962e-16 3.430999902402596146e-16 -1.056200721203634901e-16 -3.836201700227424813e-17 0.000000000000000000e+00 0.000000000000000000e+00 0.000000000000000000e+00 0.000000000000000000e+00 -1.414327501031936910e-16 1.199605504470729161e-15 0.000000000000000000e+00 -3.223452870788736684e-16 3.673079999457156826e-16 3.430999902402596146e-16 -1.056200721203634901e-16 -3.836201700227424813e-17 0.000000000000000000e+00 0.000000000000000000e+00 0.000000000000000000e+00 0.000000000000000000e+00 -2.360897219643505348e-16 9.176649684119108795e-16 0.000000000000000000e+00 1.185004922696070223e-16 5.629645044804453199e-16
4.499975961784804781e+02 -2.577813892388996445e-03 1.070048112974271957e-03 -2.444640364532079183e-02 1.616799549015698542e-02 -1.258932329323253496e-01 1.712357181085216173e-01 3.266405484545403110e-02 2.634878115636045681e-01 2.872953271613529549e-02 1.859304459371941302e-04 -7.508110611567872517e-02 7.298257710231551357e-03 -2.032157355811289650e-04 1.733497187277244569e-02 1.034987424156432745e-01 5.940935233202247756e-02 1.456511489499778822e-01 5.162453113744453967e-03 1.938498452906433148e-02 -2.476518053336733069e-02 9.766779642392194732e-03 -1.329871596697152457e-02 2.785462802942637039e-02 -1.308228444583950205e-02 -7.385538377325344232e-03 1.774027185472005011e-03 -3.266367042899966620e-03 -1.939761636315945163e-03 -3.469313554074461787e-04 -4.923078503938206271e-03 -2.954540041481214154e-03 -8.206307126497063183e-04 -2.758619884803640860e-03 9.194948907071144855e-04 5.200807137262357729e-03 -3.919633590958918577e-03 5.152068715141553713e-04 1.416430017686875348e-02 -6.728653202890652607e-02 2.409815649707275700e-02 9.513690387574458285e-02 -1.980906301291540314e-02 4.409935107436312174e-02 1.360576957437715784e-01 8.702717043006609476e-02 -8.461686494793620172e-02 1.216608393420876878e-02 -1.864153900524430640e-01 1.865567315961873252e-01 -1.515740910818623444e-01 -7.956359436061916091e-02 -8.406529180226396392e-02 9.399676258611140700e-02 0.000000000000000000e+00 0.000000000000000000e+00 0.000000000000000000e+00 5.335537220856499049e-16 6.769062207140549796e-16 0.000000000000000000e+00 2.545046127293285425e-15 3.054050612618179928e-16 0.000000000000000000e+00 3.776587519648944820e-16 -7.885813981546767565e-17 -3.833316311025033101e-17 0.000000000000000000e+00 0.000000000000000000e+00 0.000000000000000000e+00 0.000000000000000000e+00 2.441908523716823610e-15 1.561945322004634719e-15 0.000000000000000000e+00 -7.823099787526958231e-16 -2.253802204278540315e-16 3.776587519648944820e-16 -7.885813981546767565e-17 -3.833316311025033101e-17 0.000000000000000000e+00 -5.051314702856368875e-16 1.449216044552689471e-15 0.000000000000000000e+00 -9.437163850152342248e-16 -1.401564151637391725e-15 0.000000000000000000e+00 1.464471467359626632e-16 1.391815007132407301e-15 3.776587519648944820e-16 -7.885813981546767565e-17 -3.833316311025033101e-17 0.000000000000000000e+00 0.000000000000000000e+00 0.000000000000000000e+00 0.000000000000000000e+00 4.056900729766409293e-16 -6.547505618835181564e-16 0.000000000000000000e+00 -6.019920287922231643e-16 -1.892053535928179562e-16 3.776587519648944820e-16 -7.885813981546767565e-17 -3.833316311025033101e-17 0.000000000000000000e+00 0.000000000000000000e+00 0.000000000000000000e+00 0.000000000000000000e+00 -5.921297734062254230e-16 1.190825764639673029e-15 0.000000000000000000e+00 9.348083962622863275e-17 -1.415538959065367571e-15 1.643037536640474736e-02 -1.404661793948451531e-02 9.922465280029071910e-02 -1.068739211931373001e+00 1.498853763294978325e-01 1.192025424264422817e+00 -1.980233723319134165e-01 9.187084736471539115e-01 -7.551822257149058970e-01 -4.615052042514751485e-02 -9.102349627082872985e-02 -1.108556394508303788e-01 0.000000000000000000e+00 0.000000000000000000e+00 0.000000000000000000e+00 -2.471212666839008901e-16 1.112894753081322209e-15 0.000000000000000000e+00 -2.572736591916264914e-15 9.598186001179529875e-16 0.000000000000000000e+00 -2.364886285128834234e-16 3.555351950800463394e-16 1.338288598486975192e-16 0.000000000000000000e+00 0.000000000000000000e+00 0.000000000000000000e+00 0.000000000000000000e+00 -1.122136603900495479e-15 3.791950477387828643e-15 0.000000000000000000e+00 7.256559272667370702e-16 3.835170272171176651e-15 -2.364886285128834234e-16 3.555351950800463394e-16 1.338288598486975192e-16 0.000000000000000000e+00 -2.394425481782542607e-16 1.051159167850996420e-15 0.000000000000000000e+00 3.258937841898603757e-16 2.754305803346591667e-15 0.000000000000000000e+00 1.282870558750513525e-15 1.511631208141160359e-15 -2.364886285128834234e-16 3.555351950800463394e-16 1.338288598486975192e-16 0.000000000000000000e+00 0.000000000000000000e+00 0.000000000000000000e+00 0.000000000000000000e+00 4.256863359444131232e-16 1.075328751027015341e-15 0.000000000000000000e+00 -1.331659787828247357e-16 1.328153750593559664e-16 -2.364886285128834234e-16 3.555351950800463394e-16 1.338288598486975192e-16 0.000000000000000000e+00 0.000000000000000000e+00 0.000000000000000000e+00 0.000000000000000000e+00 -9.309068660179791917e-17 -2.801944806182857140e-16 0.000000000000000000e+00 1.009018533818462520e-15 6.599993846629885518e-16
4.499986858836131773e+02 -3.469548375530037438e-03 3.911199829873569789e-03 -2.564720782063591858e-02 2.096543779122337844e-02 -9.320352380288607352e-02 1.217286644837211745e-01 2.714715356240730501e-02 2.163425306165079609e-01 4.303783127034931100e-02 5.698736774438782453e-03 -8.944955711118567077e-02 6.837514167953610486e-03 -3.482663990240004569e-03 1.447482975955970141e-02 6.012251621070728580e-02 4.114662885225858768e-02 1.069980751559434784e-01 2.034733265981961484e-02 1.772077789605753378e-02 -4.084949938135755410e-02 1.433957728577683367e-02 -6.496714255814612336e-03 2.553691531030738773e-02 -7.462683231686239108e-03 -8.372989003947468173e-03 7.053121894283248886e-03 -1.885454630727412088e-03 -2.886162700595231410e-03 1.206621034366679593e-03 -2.502023782399986733e-03 -3.096809712177985702e-03 1.465788028282491787e-03 -2.964324650234325537e-03 3.184976931795956319e-03 3.702724383363173357e-03 -3.745919628454378930e-04 3.027773001417728010e-03 3.209369067771292595e-04 -7.452793416346198407e-02 5.854735891405182108e-02 7.335173403319360241e-02 -1.816001760960298320e-02 4.534972667259964951e-02 1.487015218820135765e-01 1.244954378771672976e-01 -6.944948024591200697e-02 6.174791067414524270e-02 -2.513562104186090052e-01 2.415803533921799529e-01 -2.503763959440630238e-01 -1.010822624340236980e-01 -2.041370619260988728e-01 1.982902378217423767e-01 0.000000000000000000e+00 0.000000000000000000e+00 0.000000000000000000e+00 6.108355739872389620e-16 1.108091093780519674e-15 0.000000000000000000e+00 3.655013978602877123e-15 3.393041029674840628e-16 0.000000000000000000e+00 4.631775678418997206e-16 -1.531076525719398406e-16 -1.385693741581367539e-16 0.000000000000000000e+00 0.000000000000000000e+00 0.000000000000000000e+00 0.000000000000000000e+00 2.788156796079658025e-15 1.739748301741990882e-15 0.000000000000000000e+00 -6.297028806497160286e-16 7.367974795211978135e-18 4.631775678418997206e-16 -1.531076525719398406e-16 -1.385693741581367539e-16 0.000000000000000000e+00 -6.600864159803089647e-16 1.656367010861172707e-15 0.000000000000000000e+00 -8.368768658493008395e-16 -1.465870052217406835e-15 0.000000000000000000e+00 5.154643767011205602e-17 1.595369437690685066e-15 4.631775678418997206e-16 -1.531076525719398406e-16 -1.385693741581367539e-16 0.000000000000000000e+00 0.000000000000000000e+00 0.000000000000000000e+00 0.000000000000000000e+00 4.291454527585200844e-16 -7.053646550867475209e-16 0.000000000000000000e+00 -3.812393469428657802e-16 -1.143899403145785320e-16 4.631775678418997206e-16 -1.531076525719398406e-16 -1.385693741581367539e-16 0.000000000000000000e+00 0.000000000000000000e+00 0.000000000000000000e+00 0.000000000000000000e+00 -5.543924600546668504e-16 1.711944028115065412e-15 0.000000000000000000e+00 2.174204348216516507e-16 -1.459656853264157048e-15 6.815255588074277740e-03 -1.035997224340421546e-02 1.146715935050101748e-01 -1.396013215160298859e+00 2.030684364752146087e-01 1.576257862568238854e+00 -2.903319448741632502e-01 1.185241114383163152e+00 -1.009102890504492978e+00 1.278176924623319610e-01 -2.313502307064149444e-01 2.052847969424733202e-02 0.000000000000000000e+00 0.000000000000000000e+00 0.000000000000000000e+00 -7.449882942113540730e-16 1.729160922192752591e-15 0.000000000000000000e+00 -2.836135480737293065e-15 9.493771603770575416e-16 0.000000000000000000e+00 -3.209709792251609379e-16 4.207027043370901245e-16 1.514036848597052365e-16 0.000000000000000000e+00 0.000000000000000000e+00 0.000000000000000000e+00 0.000000000000000000e+00 -1.008417796687905492e-15 4.386670695720337112e-15 0.000000000000000000e+00 8.165251343517018469e-16 3.699544387223442484e-15 -3.209709792251609379e-16 4.207027043370901245e-16 1.514036848597052365e-16 0.000000000000000000e+00 -4.202285568601825696e-16 1.175278982037543927e-15 0.000000000000000000e+00 6.572646014620568699e-16 2.663871653641297663e-15 0.000000000000000000e+00 1.857849733547547776e-15 1.517008772337666030e-15 -3.209709792251609379e-16 4.207027043370901245e-16 1.514036848597052365e-16 0.000000000000000000e+00 0.000000000000000000e+00 0.000000000000000000e+00 0.000000000000000000e+00 6.380881132471368939e-16 8.190561337574209595e-16 0.000000000000000000e+00 -1.218896873694036905e-17 -4.014010508398716913e-16 -3.209709792251609379e-16 4.207027043370901245e-16 1.514036848597052365e-16 0.000000000000000000e+00 0.000000000000000000e+00 0.000000000000000000e+00 0.000000000000000000e+00 2.860755243989185076e-17 -6.988153311602759824e-16 0.000000000000000000e+00 1.506898700477189583e-15 5.060048727291938218e-16
